{
  "accessors": [
    {
      "bufferView": 2,
      "componentType": 5126,
      "count": 65532,
      "max": [
        0.82145500183105469,
        -3.6055800914764404,
        0.2846820056438446
      ],
      "min": [
        -0.049320001155138016,
        -4.325599193572998,
        -0.54175698757171631
      ],
      "type": "VEC3"
    },
    {
      "bufferView": 2,
      "byteOffset": 786384,
      "componentType": 5126,
      "count": 65532,
      "max": [
        0.99997800588607788,
        0.99995517730712891,
        0.99999755620956421
      ],
      "min": [
        -0.99999862909317017,
        -0.9999503493309021,
        -0.99998217821121216
      ],
      "type": "VEC3"
    },
    {
      "bufferView": 3,
      "componentType": 5126,
      "count": 65532,
      "max": [
        0.99926453828811646,
        0.99992138147354126,
        0.99998098611831665,
        1
      ],
      "min": [
        -0.99969172477722168,
        -0.99935579299926758,
        -0.99999034404754639,
        -1
      ],
      "type": "VEC4"
    },
    {
      "bufferView": 1,
      "componentType": 5126,
      "count": 65532,
      "max": [
        0.99622100591659546,
        0.99853897094726562
      ],
      "min": [
        0.011812999844551086,
        0.0038020000793039799
      ],
      "type": "VEC2"
    },
    {
      "bufferView": 0,
      "componentType": 5125,
      "count": 348708,
      "max": [
        65531
      ],
      "min": [
        0
      ],
      "type": "SCALAR"
    },
    {
      "bufferView": 2,
      "byteOffset": 1572768,
      "componentType": 5126,
      "count": 65532,
      "max": [
        0.82145500183105469,
        -3.411113977432251,
        0.31671598553657532
      ],
      "min": [
        0.049166999757289886,
        -4.3254108428955078,
        -0.56001901626586914
      ],
      "type": "VEC3"
    },
    {
      "bufferView": 2,
      "byteOffset": 2359152,
      "componentType": 5126,
      "count": 65532,
      "max": [
        0.99997800588607788,
        0.99985921382904053,
        0.99997419118881226
      ],
      "min": [
        -0.99999284744262695,
        -0.99997258186340332,
        -0.99998217821121216
      ],
      "type": "VEC3"
    },
    {
      "bufferView": 3,
      "byteOffset": 1048512,
      "componentType": 5126,
      "count": 65532,
      "max": [
        0.99919295310974121,
        0.99999338388442993,
        0.99998098611831665,
        1
      ],
      "min": [
        -0.99974989891052246,
        -0.99996566772460938,
        -0.99999034404754639,
        -1
      ],
      "type": "VEC4"
    },
    {
      "bufferView": 1,
      "byteOffset": 524256,
      "componentType": 5126,
      "count": 65532,
      "max": [
        0.99447900056838989,
        0.99890202283859253
      ],
      "min": [
        0.013554000295698643,
        0.0037920000031590462
      ],
      "type": "VEC2"
    },
    {
      "bufferView": 0,
      "byteOffset": 1394832,
      "componentType": 5125,
      "count": 319656,
      "max": [
        65531
      ],
      "min": [
        0
      ],
      "type": "SCALAR"
    },
    {
      "bufferView": 2,
      "byteOffset": 3145536,
      "componentType": 5126,
      "count": 65532,
      "max": [
        0.81844598054885864,
        -3.4027619361877441,
        0.32791298627853394
      ],
      "min": [
        -0.062766999006271362,
        -4.3101630210876465,
        -0.5649229884147644
      ],
      "type": "VEC3"
    },
    {
      "bufferView": 2,
      "byteOffset": 3931920,
      "componentType": 5126,
      "count": 65532,
      "max": [
        0.99988251924514771,
        0.99997985363006592,
        0.99994254112243652
      ],
      "min": [
        -0.99996846914291382,
        -0.99993997812271118,
        -0.99999111890792847
      ],
      "type": "VEC3"
    },
    {
      "bufferView": 3,
      "byteOffset": 2097024,
      "componentType": 5126,
      "count": 65532,
      "max": [
        0.999988853931427,
        0.99997216463088989,
        0.99994975328445435,
        1
      ],
      "min": [
        -0.99943035840988159,
        -0.99997240304946899,
        -0.99994164705276489,
        -1
      ],
      "type": "VEC4"
    },
    {
      "bufferView": 1,
      "byteOffset": 1048512,
      "componentType": 5126,
      "count": 65532,
      "max": [
        0.99459201097488403,
        0.9995110034942627
      ],
      "min": [
        0.013507000170648098,
        0.0069780000485479832
      ],
      "type": "VEC2"
    },
    {
      "bufferView": 0,
      "byteOffset": 2673456,
      "componentType": 5125,
      "count": 310287,
      "max": [
        65531
      ],
      "min": [
        0
      ],
      "type": "SCALAR"
    },
    {
      "bufferView": 2,
      "byteOffset": 4718304,
      "componentType": 5126,
      "count": 65532,
      "max": [
        0.80837100744247437,
        -3.4034299850463867,
        0.33086299896240234
      ],
      "min": [
        -0.14932100474834442,
        -4.4723367691040039,
        -0.56483900547027588
      ],
      "type": "VEC3"
    },
    {
      "bufferView": 2,
      "byteOffset": 5504688,
      "componentType": 5126,
      "count": 65532,
      "max": [
        0.99988651275634766,
        0.99990350008010864,
        0.99993300437927246
      ],
      "min": [
        -0.99999016523361206,
        -0.99980372190475464,
        -0.99997556209564209
      ],
      "type": "VEC3"
    },
    {
      "bufferView": 3,
      "byteOffset": 3145536,
      "componentType": 5126,
      "count": 65532,
      "max": [
        0.9995800256729126,
        0.99975889921188354,
        0.99981564283370972,
        1
      ],
      "min": [
        -0.9974370002746582,
        -0.99949449300765991,
        -0.99997377395629883,
        -1
      ],
      "type": "VEC4"
    },
    {
      "bufferView": 1,
      "byteOffset": 1572768,
      "componentType": 5126,
      "count": 65532,
      "max": [
        0.99525701999664307,
        0.99949097633361816
      ],
      "min": [
        0.010832999832928181,
        0.0033360000234097242
      ],
      "type": "VEC2"
    },
    {
      "bufferView": 0,
      "byteOffset": 3914604,
      "componentType": 5125,
      "count": 311442,
      "max": [
        65531
      ],
      "min": [
        0
      ],
      "type": "SCALAR"
    },
    {
      "bufferView": 2,
      "byteOffset": 6291072,
      "componentType": 5126,
      "count": 65532,
      "max": [
        0.78777897357940674,
        -3.4074420928955078,
        0.32716500759124756
      ],
      "min": [
        -0.1638990044593811,
        -4.4752187728881836,
        -0.56122499704360962
      ],
      "type": "VEC3"
    },
    {
      "bufferView": 2,
      "byteOffset": 7077456,
      "componentType": 5126,
      "count": 65532,
      "max": [
        0.99992483854293823,
        0.99998730421066284,
        0.9999920129776001
      ],
      "min": [
        -0.99992972612380981,
        -0.99998444318771362,
        -0.99993467330932617
      ],
      "type": "VEC3"
    },
    {
      "bufferView": 3,
      "byteOffset": 4194048,
      "componentType": 5126,
      "count": 65532,
      "max": [
        0.99997353553771973,
        0.99993830919265747,
        0.99992549419403076,
        1
      ],
      "min": [
        -0.99996185302734375,
        -0.99984931945800781,
        -0.99993669986724854,
        -1
      ],
      "type": "VEC4"
    },
    {
      "bufferView": 1,
      "byteOffset": 2097024,
      "componentType": 5126,
      "count": 65532,
      "max": [
        0.99441099166870117,
        0.99974501132965088
      ],
      "min": [
        0.007170999888330698,
        0.00012500000593718141
      ],
      "type": "VEC2"
    },
    {
      "bufferView": 0,
      "byteOffset": 5160372,
      "componentType": 5125,
      "count": 304821,
      "max": [
        65531
      ],
      "min": [
        0
      ],
      "type": "SCALAR"
    },
    {
      "bufferView": 2,
      "byteOffset": 7863840,
      "componentType": 5126,
      "count": 65532,
      "max": [
        0.74130797386169434,
        -3.4374430179595947,
        0.36077100038528442
      ],
      "min": [
        -0.31294599175453186,
        -4.475837230682373,
        -0.54209697246551514
      ],
      "type": "VEC3"
    },
    {
      "bufferView": 2,
      "byteOffset": 8650224,
      "componentType": 5126,
      "count": 65532,
      "max": [
        0.99992328882217407,
        0.99944049119949341,
        0.99995547533035278
      ],
      "min": [
        -0.99992972612380981,
        -0.99991351366043091,
        -0.99996489286422729
      ],
      "type": "VEC3"
    },
    {
      "bufferView": 3,
      "byteOffset": 5242560,
      "componentType": 5126,
      "count": 65532,
      "max": [
        0.99997353553771973,
        0.99986159801483154,
        0.99989926815032959,
        1
      ],
      "min": [
        -0.99971228837966919,
        -0.99988102912902832,
        -0.99994099140167236,
        -1
      ],
      "type": "VEC4"
    },
    {
      "bufferView": 1,
      "byteOffset": 2621280,
      "componentType": 5126,
      "count": 65532,
      "max": [
        0.99426299333572388,
        0.99840402603149414
      ],
      "min": [
        0.0035610001068562269,
        0.0084279999136924744
      ],
      "type": "VEC2"
    },
    {
      "bufferView": 0,
      "byteOffset": 6379656,
      "componentType": 5125,
      "count": 306345,
      "max": [
        65531
      ],
      "min": [
        0
      ],
      "type": "SCALAR"
    },
    {
      "bufferView": 2,
      "byteOffset": 9436608,
      "componentType": 5126,
      "count": 65532,
      "max": [
        0.67886501550674438,
        -3.5250759124755859,
        0.39167401194572449
      ],
      "min": [
        -0.26965698599815369,
        -4.530515193939209,
        -0.47688201069831848
      ],
      "type": "VEC3"
    },
    {
      "bufferView": 2,
      "byteOffset": 10222992,
      "componentType": 5126,
      "count": 65532,
      "max": [
        0.99996775388717651,
        0.99984407424926758,
        0.99999833106994629
      ],
      "min": [
        -0.99993854761123657,
        -0.99998241662979126,
        -0.99998641014099121
      ],
      "type": "VEC3"
    },
    {
      "bufferView": 3,
      "byteOffset": 6291072,
      "componentType": 5126,
      "count": 65532,
      "max": [
        0.99999880790710449,
        0.99921137094497681,
        0.99996483325958252,
        1
      ],
      "min": [
        -0.99995619058609009,
        -0.99999070167541504,
        -0.99990266561508179,
        -1
      ],
      "type": "VEC4"
    },
    {
      "bufferView": 1,
      "byteOffset": 3145536,
      "componentType": 5126,
      "count": 65532,
      "max": [
        0.99213898181915283,
        0.9991070032119751
      ],
      "min": [
        0.0014280000468716025,
        0.010138999670743942
      ],
      "type": "VEC2"
    },
    {
      "bufferView": 0,
      "byteOffset": 7605036,
      "componentType": 5125,
      "count": 312627,
      "max": [
        65531
      ],
      "min": [
        0
      ],
      "type": "SCALAR"
    },
    {
      "bufferView": 2,
      "byteOffset": 11009376,
      "componentType": 5126,
      "count": 65532,
      "max": [
        0.56865900754928589,
        -3.597559928894043,
        0.39150500297546387
      ],
      "min": [
        -0.32312700152397156,
        -4.5342750549316406,
        -0.38703200221061707
      ],
      "type": "VEC3"
    },
    {
      "bufferView": 2,
      "byteOffset": 11795760,
      "componentType": 5126,
      "count": 65532,
      "max": [
        0.99980777502059937,
        0.99999427795410156,
        0.99998641014099121
      ],
      "min": [
        -0.99997907876968384,
        -0.99999690055847168,
        -0.99996489286422729
      ],
      "type": "VEC3"
    },
    {
      "bufferView": 3,
      "byteOffset": 7339584,
      "componentType": 5126,
      "count": 65532,
      "max": [
        0.99999880790710449,
        0.99964284896850586,
        0.99997055530548096,
        1
      ],
      "min": [
        -0.99997216463088989,
        -0.99987447261810303,
        -0.99999958276748657,
        -1
      ],
      "type": "VEC4"
    },
    {
      "bufferView": 1,
      "byteOffset": 3669792,
      "componentType": 5126,
      "count": 65532,
      "max": [
        0.99425101280212402,
        0.99905902147293091
      ],
      "min": [
        0.00035799999022856355,
        0.0040420000441372395
      ],
      "type": "VEC2"
    },
    {
      "bufferView": 0,
      "byteOffset": 8855544,
      "componentType": 5125,
      "count": 304608,
      "max": [
        65531
      ],
      "min": [
        0
      ],
      "type": "SCALAR"
    },
    {
      "bufferView": 2,
      "byteOffset": 12582144,
      "componentType": 5126,
      "count": 65532,
      "max": [
        0.44451400637626648,
        -3.7190489768981934,
        0.39055898785591125
      ],
      "min": [
        -0.31777900457382202,
        -4.5336108207702637,
        -0.28891599178314209
      ],
      "type": "VEC3"
    },
    {
      "bufferView": 2,
      "byteOffset": 13368528,
      "componentType": 5126,
      "count": 65532,
      "max": [
        0.99998503923416138,
        0.99995720386505127,
        0.99994325637817383
      ],
      "min": [
        -0.9999842643737793,
        -0.99996328353881836,
        -0.9998626708984375
      ],
      "type": "VEC3"
    },
    {
      "bufferView": 3,
      "byteOffset": 8388096,
      "componentType": 5126,
      "count": 65532,
      "max": [
        0.99999171495437622,
        0.99906253814697266,
        0.99889689683914185,
        1
      ],
      "min": [
        -0.99998664855957031,
        -0.99987661838531494,
        -0.99999868869781494,
        -1
      ],
      "type": "VEC4"
    },
    {
      "bufferView": 1,
      "byteOffset": 4194048,
      "componentType": 5126,
      "count": 65532,
      "max": [
        0.99481701850891113,
        0.99860298633575439
      ],
      "min": [
        0.0033060000278055668,
        0.0039240000769495964
      ],
      "type": "VEC2"
    },
    {
      "bufferView": 0,
      "byteOffset": 10073976,
      "componentType": 5125,
      "count": 311952,
      "max": [
        65531
      ],
      "min": [
        0
      ],
      "type": "SCALAR"
    },
    {
      "bufferView": 2,
      "byteOffset": 14154912,
      "componentType": 5126,
      "count": 32298,
      "max": [
        0.30139100551605225,
        -3.8969659805297852,
        0.35884401202201843
      ],
      "min": [
        -0.32298201322555542,
        -4.5033211708068848,
        -0.17829200625419617
      ],
      "type": "VEC3"
    },
    {
      "bufferView": 2,
      "byteOffset": 14542488,
      "componentType": 5126,
      "count": 32298,
      "max": [
        0.99947607517242432,
        0.99971139430999756,
        0.99975717067718506
      ],
      "min": [
        -0.99988919496536255,
        -0.99976557493209839,
        -0.9998626708984375
      ],
      "type": "VEC3"
    },
    {
      "bufferView": 3,
      "byteOffset": 9436608,
      "componentType": 5126,
      "count": 32298,
      "max": [
        0.99999171495437622,
        0.99993371963500977,
        0.99772423505783081,
        1
      ],
      "min": [
        -0.99995231628417969,
        -0.99987661838531494,
        -0.99999868869781494,
        -1
      ],
      "type": "VEC4"
    },
    {
      "bufferView": 1,
      "byteOffset": 4718304,
      "componentType": 5126,
      "count": 32298,
      "max": [
        0.99351400136947632,
        0.99947601556777954
      ],
      "min": [
        0.021302999928593636,
        0.0038439999334514141
      ],
      "type": "VEC2"
    },
    {
      "bufferView": 0,
      "byteOffset": 11321784,
      "componentType": 5125,
      "count": 149190,
      "max": [
        32297
      ],
      "min": [
        0
      ],
      "type": "SCALAR"
    }
  ],
  "asset": {
    "extras": {
      "author": "RLA Archaeology (https://sketchfab.com/rla-archaeology)",
      "license": "CC-BY-NC-4.0 (http://creativecommons.org/licenses/by-nc/4.0/)",
      "source": "https://sketchfab.com/3d-models/pee-dee-plain-jar-70p160-0c1b5336f2214fb8b4ff9bcb6003cd38",
      "title": "Pee Dee Plain Jar (70p160)"
    },
    "generator": "Sketchfab-6.64.0",
    "version": "2.0"
  },
  "bufferViews": [
    {
      "buffer": 0,
      "byteLength": 11918544,
      "byteOffset": 0,
      "name": "floatBufferViews",
      "target": 34963
    },
    {
      "buffer": 0,
      "byteLength": 4976688,
      "byteOffset": 11918544,
      "byteStride": 8,
      "name": "floatBufferViews",
      "target": 34962
    },
    {
      "buffer": 0,
      "byteLength": 14930064,
      "byteOffset": 16895232,
      "byteStride": 12,
      "name": "floatBufferViews",
      "target": 34962
    },
    {
      "buffer": 0,
      "byteLength": 9953376,
      "byteOffset": 31825296,
      "byteStride": 16,
      "name": "floatBufferViews",
      "target": 34962
    }
  ],
  "buffers": [
    {
      "byteLength": 41778672,
      "uri": "scene.bin"
    }
  ],
  "images": [
    {
      "uri": "textures/material_0_baseColor.jpeg"
    }
  ],
  "materials": [
    {
      "doubleSided": true,
      "emissiveFactor": [
        0,
        0,
        0
      ],
      "name": "material_0",
      "pbrMetallicRoughness": {
        "baseColorFactor": [
          1,
          1,
          1,
          1
        ],
        "baseColorTexture": {
          "index": 0,
          "texCoord": 0
        },
        "metallicFactor": 0,
        "roughnessFactor": 0.59999999999999998
      }
    }
  ],
  "meshes": [
    {
      "primitives": [
        {
          "attributes": {
            "NORMAL": 1,
            "POSITION": 0,
            "TANGENT": 2,
            "TEXCOORD_0": 3
          },
          "indices": 4,
          "material": 0,
          "mode": 4
        }
      ]
    },
    {
      "primitives": [
        {
          "attributes": {
            "NORMAL": 6,
            "POSITION": 5,
            "TANGENT": 7,
            "TEXCOORD_0": 8
          },
          "indices": 9,
          "material": 0,
          "mode": 4
        }
      ]
    },
    {
      "primitives": [
        {
          "attributes": {
            "NORMAL": 11,
            "POSITION": 10,
            "TANGENT": 12,
            "TEXCOORD_0": 13
          },
          "indices": 14,
          "material": 0,
          "mode": 4
        }
      ]
    },
    {
      "primitives": [
        {
          "attributes": {
            "NORMAL": 16,
            "POSITION": 15,
            "TANGENT": 17,
            "TEXCOORD_0": 18
          },
          "indices": 19,
          "material": 0,
          "mode": 4
        }
      ]
    },
    {
      "primitives": [
        {
          "attributes": {
            "NORMAL": 21,
            "POSITION": 20,
            "TANGENT": 22,
            "TEXCOORD_0": 23
          },
          "indices": 24,
          "material": 0,
          "mode": 4
        }
      ]
    },
    {
      "primitives": [
        {
          "attributes": {
            "NORMAL": 26,
            "POSITION": 25,
            "TANGENT": 27,
            "TEXCOORD_0": 28
          },
          "indices": 29,
          "material": 0,
          "mode": 4
        }
      ]
    },
    {
      "primitives": [
        {
          "attributes": {
            "NORMAL": 31,
            "POSITION": 30,
            "TANGENT": 32,
            "TEXCOORD_0": 33
          },
          "indices": 34,
          "material": 0,
          "mode": 4
        }
      ]
    },
    {
      "primitives": [
        {
          "attributes": {
            "NORMAL": 36,
            "POSITION": 35,
            "TANGENT": 37,
            "TEXCOORD_0": 38
          },
          "indices": 39,
          "material": 0,
          "mode": 4
        }
      ]
    },
    {
      "primitives": [
        {
          "attributes": {
            "NORMAL": 41,
            "POSITION": 40,
            "TANGENT": 42,
            "TEXCOORD_0": 43
          },
          "indices": 44,
          "material": 0,
          "mode": 4
        }
      ]
    },
    {
      "primitives": [
        {
          "attributes": {
            "NORMAL": 46,
            "POSITION": 45,
            "TANGENT": 47,
            "TEXCOORD_0": 48
          },
          "indices": 49,
          "material": 0,
          "mode": 4
        }
      ]
    }
  ],
  "nodes": [
    {
      "children": [
        1
      ],
      "name": "RootNode (gltf orientation matrix)",
      "rotation": [
        -0.70710678118654746,
        -0,
        -0,
        0.70710678118654757
      ]
    },
    {
      "children": [
        2
      ],
      "matrix": [
        -0.45908930897712708,
        0.4041496217250824,
        -0.79113847017288208,
        0,
        -0.56386256217956543,
        0.55560624599456787,
        0.61103248596191406,
        0,
        0.68651002645492554,
        0.72661185264587402,
        -0.027188032865524292,
        0,
        -1.7879042625427246,
        -1.799355149269104,
        2.5332012176513672,
        1
      ],
      "name": "RootNode (model correction matrix)"
    },
    {
      "children": [
        3,
        4,
        5,
        6,
        7,
        8,
        9,
        10,
        11,
        12
      ],
      "name": "Mg2 Plain Jar (70p160).obj.cleaner.gles"
    },
    {
      "mesh": 0,
      "name": ""
    },
    {
      "mesh": 1,
      "name": ""
    },
    {
      "mesh": 2,
      "name": ""
    },
    {
      "mesh": 3,
      "name": ""
    },
    {
      "mesh": 4,
      "name": ""
    },
    {
      "mesh": 5,
      "name": ""
    },
    {
      "mesh": 6,
      "name": ""
    },
    {
      "mesh": 7,
      "name": ""
    },
    {
      "mesh": 8,
      "name": ""
    },
    {
      "mesh": 9,
      "name": ""
    }
  ],
  "samplers": [
    {
      "magFilter": 9729,
      "minFilter": 9987,
      "wrapS": 10497,
      "wrapT": 10497
    }
  ],
  "scene": 0,
  "scenes": [
    {
      "name": "OSG_Scene",
      "nodes": [
        0
      ]
    }
  ],
  "textures": [
    {
      "sampler": 0,
      "source": 0
    }
  ]
}

