{"asset":{"version":"2.0","generator":"VECTARY"},"nodes":[{"translation":[0,0,0],"scale":[1,1,1],"rotation":[0,0,0,1],"name":"poly (1)","mesh":0}],"materials":[{"pbrMetallicRoughness":{"baseColorFactor":[1,1,1,1],"baseColorTexture":{"index":0,"extensions":{"KHR_texture_transform":{"offset":[0,0],"scale":[1,1],"rotation":0}},"texCoord":0},"metallicFactor":0,"roughnessFactor":1},"name":"Pleasant Dream","normalTexture":{"index":1,"scale":1,"extensions":{"KHR_texture_transform":{"offset":[0,0],"scale":[1,1],"rotation":0}},"texCoord":0},"emissiveFactor":[0,0,0],"alphaMode":"OPAQUE","doubleSided":false}],"textures":[{"sampler":0,"source":0},{"sampler":0,"source":1}],"images":[{"uri":"Gltf_Import.jpg","mimeType":"image/jpeg"},{"uri":"Gltf_Import_1.jpg","mimeType":"image/jpeg"}],"samplers":[{"wrapS":10497,"wrapT":10497}],"meshes":[{"primitives":[{"mode":4,"attributes":{"POSITION":1,"NORMAL":2,"TEXCOORD_0":3},"material":0,"indices":0}]}],"accessors":[{"bufferView":0,"byteOffset":0,"componentType":5125,"count":149997,"type":"SCALAR"},{"bufferView":1,"byteOffset":0,"componentType":5126,"count":27274,"max":[0.07613608241081238,0.1484241783618927,0.05093557387590408],"min":[-0.07613608241081238,-0.1484241783618927,-0.05093557387590408],"type":"VEC3"},{"bufferView":2,"byteOffset":0,"componentType":5126,"count":27274,"type":"VEC3"},{"bufferView":3,"byteOffset":0,"componentType":5126,"count":27274,"type":"VEC2"}],"bufferViews":[{"buffer":0,"byteOffset":0,"byteLength":599988,"target":34963},{"buffer":0,"byteOffset":599988,"byteLength":327288,"target":34962},{"buffer":0,"byteOffset":927276,"byteLength":327288,"target":34962},{"buffer":0,"byteOffset":1254564,"byteLength":218192,"target":34962}],"scene":0,"scenes":[{"nodes":[0],"name":"Project Name"}],"extensionsUsed":["KHR_texture_transform"],"buffers":[{"byteLength":1472756,"uri":"ProjectName.bin"}]}